<?xml version="1.0" encoding="UTF-8" standalone="no"?>
<!DOCTYPE svg PUBLIC "-//W3C//DTD SVG 1.0//EN"
"http://www.w3.org/TR/2001/REC-SVG-20010904/DTD/svg10.dtd">
<!-- Created with Sodipodi ("http://www.sodipodi.com/") -->
<svg
   id="svg629"
   sodipodi:version="0.34"
   xmlns="http://www.w3.org/2000/svg"
   xmlns:sodipodi="http://sodipodi.sourceforge.net/DTD/sodipodi-0.dtd"
   xmlns:xlink="http://www.w3.org/1999/xlink"
   width="210mm"
   height="297mm"
   xml:space="preserve"
   sodipodi:docbase="C:\Documents and Settings\Administrador\Meus documentos\Minhas figuras\svg"
   sodipodi:docname="C:\Documents and Settings\Administrador\Meus documentos\Minhas figuras\svg\mapa-brasil.svg"><defs
   id="defs631" /><sodipodi:namedview
   id="base" /><path
   style="fill:none;fill-rule:evenodd;stroke:black;stroke-opacity:1;stroke-width:1pt;stroke-linejoin:miter;stroke-linecap:butt;fill-opacity:1;"
   d="M 281.25 144.8622 L 288.75 143.6122 L 287.5 152.3622 L 295 158.6122 L 297.5 166.1122 L 292.5 177.3622 L 291.25 188.6122 L 296.25 203.6122 L 307.5 211.1122 L 322.5 208.6122 L 341.25 199.8622 L 362.5 203.6122 L 360 193.6122 L 372.5 191.1122 L 376.25 187.3622 L 391.25 196.1122 L 401.25 193.6122 L 415 194.8622 L 425 183.6122 L 426.25 174.8622 L 440 161.1122 L 451.25 173.6122 L 452.5 189.8622 L 460 204.8622 L 468.75 208.6122 L 461.25 222.3622 L 448.75 234.8622 L 443.75 241.1122 L 445 252.3622 L 452.5 252.3622 L 457.5 237.3622 L 473.75 237.3622 L 492.5 238.6122 L 492.5 247.3622 L 488.75 256.1122 L 480 262.3622 L 492.5 259.8622 L 498.75 248.6122 L 512.5 246.1122 L 542.5 257.3622 L 550 264.8622 L 558.75 262.3622 L 563.75 272.3622 L 563.75 281.1122 L 567.5 284.8622 L 581.25 279.8622 L 596.25 284.8622 L 616.25 289.8622 L 638.75 288.6122 L 665 306.1122 L 677.5 317.3622 L 693.75 329.8622 L 715 336.1122 L 725 349.8622 L 728.75 371.1122 L 723.75 393.6122 L 706.25 413.6121 L 695 424.8621 L 680 442.3622 L 668.75 461.1122 L 656.25 466.1122 L 648.75 476.1122 L 650 489.8622 L 650 508.6122 L 646.25 531.1122 L 640 551.1122 L 630 566.1122 L 631.25 578.6122 L 617.5 594.8622 L 607.5 609.8622 L 607.5 622.3622 L 592.5 629.8622 L 588.75 634.8622 L 588.75 637.3622 L 576.25 638.6122 L 558.75 634.8622 L 550 639.8622 L 541.25 641.1122 L 533.75 646.1122 L 530 651.1122 L 520 651.1122 L 501.25 664.8622 L 491.25 674.8622 L 481.25 681.1122 L 477.5 698.6122 L 480 711.1122 L 476.25 727.3622 L 463.75 739.8622 L 455 757.3622 L 438.75 782.3622 L 425 789.8622 L 415 804.8622 L 408.75 817.3622 L 402.5 818.6122 L 400 807.3622 L 407.5 799.8622 L 400 792.3622 L 395 787.3622 L 375 774.8622 L 372.5 767.3622 L 365 772.3622 L 352.5 757.3622 L 342.5 757.3622 L 346.25 749.8622 L 365 728.6122 L 386.25 711.1122 L 397.5 703.6122 L 400 687.3622 L 395 678.6122 L 386.25 676.1122 L 391.25 657.3622 L 386.25 646.1122 L 373.75 649.8622 L 367.5 621.1122 L 353.75 617.3622 L 332.5 618.6122 L 333.75 598.6122 L 327.5 581.1122 L 337.5 551.1122 L 332.5 538.6122 L 322.5 531.1122 L 322.5 517.3622 L 291.25 517.3622 L 286.25 498.6122 L 290 494.8622 L 287.5 477.3622 C 287.5 477.3622 275 468.6122 272.5 468.6122 C 270 468.6122 247.5 463.6122 247.5 463.6122 L 232.5 451.1122 C 232.5 451.1122 225 454.8622 220 452.3622 C 215 449.8622 201.25 432.3621 201.25 432.3621 L 201.25 406.1122 L 177.5 412.3622 L 166.25 426.1121 L 155 426.1121 L 143.75 436.1121 L 123.75 432.3621 L 117.5 434.8621 L 110 427.3621 L 111.25 407.3622 L 101.25 417.3621 L 83.75 417.3621 L 81.25 408.6122 L 67.5 407.3622 L 71.25 399.8622 L 51.25 376.1122 L 55 363.6122 L 67.5 358.6122 L 65 349.8622 L 67.5 333.6122 L 100 314.8622 L 115 318.6122 L 128.75 262.3622 L 123.75 248.6122 L 113.75 243.6122 L 116.25 231.1122 L 131.25 228.6122 L 126.25 221.1122 L 120 221.1122 L 120 212.3622 L 148.75 204.8622 L 152.5 211.1122 L 162.5 201.1122 L 168.75 214.8622 L 180 223.6122 L 196.25 219.8622 L 220 208.6122 L 231.25 198.6122 L 226.25 192.3622 L 215 177.3622 L 208.75 163.6122 L 225 168.6122 L 240 172.3622 L 248.75 162.3622 L 268.75 156.1122 L 281.25 144.8622 z "
   id="path633" /></svg>
