<svg id="svg" xmlns="http://www.w3.org/2000/svg" xmlns:xlink="http://www.w3.org/1999/xlink" width="400" height="620.8333333333334" viewBox="0, 0, 400,620.8333333333334"><g id="svgg"><path id="path0" d="M193.383 4.427 C 192.513 6.862,191.386 10.260,190.878 11.979 C 190.253 14.091,188.719 15.695,186.143 16.926 C 179.035 20.323,180.144 25.470,189.152 30.886 C 191.028 32.014,191.037 32.129,189.299 32.830 C 188.015 33.348,185.971 32.421,182.591 29.787 C 176.381 24.950,175.454 25.354,175.798 32.746 L 176.075 38.707 172.897 36.444 C 169.304 33.886,167.341 34.671,166.226 39.114 C 165.504 41.992,167.991 47.691,170.367 48.603 C 171.820 49.160,172.546 52.083,171.231 52.083 C 170.877 52.083,168.986 50.677,167.028 48.958 C 161.256 43.890,157.795 45.603,158.516 53.171 C 158.870 56.882,158.749 57.182,157.566 55.534 C 147.598 41.649,144.261 54.770,153.181 72.778 C 156.936 80.359,157.292 81.800,157.292 89.432 L 157.292 97.786 153.702 97.203 C 143.907 95.614,141.586 101.086,149.740 106.547 C 157.030 111.431,152.362 115.970,144.585 111.560 C 134.738 105.975,125.943 115.043,132.405 124.118 C 135.196 128.038,134.622 128.557,129.749 126.521 C 122.382 123.443,117.188 124.752,117.188 129.688 C 117.188 133.507,116.927 133.898,114.063 134.375 C 108.301 135.335,109.595 140.721,116.081 142.773 C 125.341 145.703,121.258 153.125,110.386 153.125 C 103.788 153.125,102.585 153.958,103.563 157.853 C 104.912 163.228,117.397 165.397,127.161 161.952 C 132.546 160.052,134.443 158.457,139.640 151.458 C 143.257 146.588,154.688 137.674,155.840 138.826 C 156.109 139.095,153.943 140.847,151.026 142.719 C 147.389 145.052,144.950 147.632,143.267 150.925 C 141.916 153.568,139.129 157.345,137.072 159.319 C 133.593 162.659,133.332 163.347,133.319 169.215 C 133.298 178.458,132.834 179.293,125.198 183.807 L 118.229 187.927 122.761 188.837 L 127.292 189.747 125.105 192.076 C 122.516 194.831,122.369 196.166,124.463 197.903 C 125.796 199.009,125.507 199.773,122.364 203.444 C 120.360 205.786,118.240 209.602,117.654 211.924 C 116.013 218.426,113.750 223.101,110.374 226.964 C 103.589 234.728,107.654 240.098,118.032 237.081 C 124.474 235.209,124.925 234.458,130.114 216.998 C 131.993 210.678,132.900 209.169,135.961 207.277 C 139.093 205.341,139.606 204.451,139.747 200.696 C 139.962 195.022,139.943 194.724,139.174 191.667 C 138.608 189.415,153.968 178.125,157.597 178.125 C 157.848 178.125,158.289 181.418,158.577 185.443 C 158.944 190.571,159.688 193.424,161.061 194.974 C 163.011 197.176,163.006 197.183,160.193 196.500 C 157.419 195.825,157.312 195.985,154.610 204.845 L 151.855 213.878 155.246 221.596 L 158.638 229.313 153.388 234.709 C 146.640 241.643,136.463 256.142,136.444 258.847 C 136.409 263.997,135.243 265.628,131.127 266.286 C 125.907 267.121,126.010 267.635,132.552 273.447 C 139.889 279.965,142.579 281.222,143.951 278.771 C 144.847 277.169,145.790 278.053,150.667 285.068 C 153.787 289.557,156.721 293.363,157.186 293.526 C 159.239 294.247,163.700 286.424,163.014 283.303 C 162.085 279.070,162.682 279.373,167.336 285.491 C 172.135 291.799,176.252 291.956,185.537 286.185 C 189.939 283.449,191.096 283.126,192.770 284.172 C 195.749 286.032,197.731 285.697,200.578 282.850 C 202.590 280.838,203.649 280.477,205.479 281.183 C 207.969 282.143,207.810 282.281,202.306 283.936 C 201.569 284.158,200.162 285.822,199.181 287.636 C 198.199 289.449,194.701 294.567,191.406 299.009 C 184.448 308.392,184.729 307.319,187.938 312.262 C 192.078 318.639,193.291 324.243,191.625 329.292 C 189.994 334.235,192.125 337.089,196.609 335.966 C 198.807 335.415,198.931 335.672,198.692 340.282 C 198.331 347.239,204.300 349.174,209.769 343.873 C 214.507 339.281,215.378 339.843,211.367 344.907 C 208.516 348.507,208.170 349.500,209.196 351.143 C 211.736 355.209,209.500 355.853,200.917 353.528 C 199.725 353.205,199.052 353.961,198.623 356.101 C 198.290 357.768,197.725 360.298,197.367 361.724 C 196.822 363.893,197.323 364.690,200.442 366.618 C 205.385 369.673,205.153 370.957,198.906 375.131 L 193.646 378.646 194.247 384.427 C 194.791 389.663,194.600 390.442,192.218 392.679 L 189.589 395.150 191.617 398.587 C 192.781 400.559,193.223 402.286,192.654 402.638 C 191.766 403.187,189.583 399.115,189.583 396.909 C 189.583 393.821,178.867 393.015,175.284 395.833 C 171.295 398.971,168.090 397.134,162.959 388.767 C 162.859 388.605,161.122 390.128,159.097 392.153 C 155.150 396.100,150.185 397.329,151.592 394.010 C 153.179 390.268,152.437 388.704,145.650 381.482 L 138.695 374.082 133.931 378.275 C 128.288 383.242,128.232 383.923,132.746 392.702 L 136.224 399.467 130.935 405.572 C 127.781 409.212,123.727 412.572,120.896 413.891 C 118.283 415.108,116.014 416.167,115.854 416.244 C 115.275 416.520,121.123 429.167,121.830 429.167 C 122.228 429.167,125.331 427.070,128.725 424.507 C 136.319 418.773,136.565 418.766,140.535 424.164 C 143.576 428.298,143.748 429.047,143.722 437.966 L 143.693 447.396 131.945 457.472 L 120.196 467.547 114.004 466.994 L 107.813 466.442 104.233 471.242 C 102.265 473.882,100.390 476.033,100.067 476.023 C 99.744 476.013,95.260 475.312,90.104 474.465 C 84.948 473.618,80.195 472.923,79.543 472.921 C 78.193 472.916,77.493 476.303,76.514 487.590 L 75.829 495.492 78.815 496.729 C 80.603 497.470,82.763 499.781,84.202 502.492 C 86.585 506.984,86.656 507.024,93.562 507.744 L 100.521 508.470 103.756 504.756 C 110.196 497.363,117.653 499.626,117.694 508.984 C 117.738 518.992,125.103 522.931,131.875 516.568 C 135.756 512.922,138.165 514.658,140.607 522.858 C 145.411 538.988,158.485 543.692,169.320 533.189 C 174.024 528.629,174.931 528.163,177.935 528.764 C 182.774 529.732,182.730 530.443,177.565 534.760 C 174.775 537.092,172.077 540.628,170.771 543.664 C 168.684 548.514,168.393 548.743,162.851 549.855 C 156.413 551.148,156.747 551.259,145.820 544.190 L 138.794 539.646 128.527 540.058 C 117.101 540.517,115.935 541.227,111.897 550.182 C 109.403 555.713,106.190 555.643,103.646 550.000 C 101.341 544.888,101.346 544.888,96.422 549.931 C 92.261 554.192,92.215 554.460,94.273 562.660 C 95.144 566.130,82.621 575.521,77.122 575.521 C 73.962 575.521,73.204 576.065,71.108 579.843 C 69.426 582.875,67.501 584.649,64.660 585.785 C 61.552 587.029,60.326 588.266,59.390 591.099 L 58.172 594.792 49.659 594.801 C 44.977 594.806,38.663 595.108,35.628 595.472 L 30.110 596.135 30.420 601.379 L 30.729 606.623 35.938 607.812 C 45.506 609.997,50.000 613.471,50.000 618.682 C 50.000 624.225,61.164 615.649,64.488 607.552 C 66.092 603.645,67.812 603.368,73.049 606.175 L 76.797 608.184 79.162 603.136 C 80.906 599.412,81.968 598.244,83.211 598.683 C 84.138 599.011,94.505 603.916,106.250 609.585 C 131.352 621.699,127.550 622.632,138.109 601.769 C 141.936 594.207,145.158 587.908,145.268 587.770 C 145.378 587.632,154.105 590.072,164.661 593.193 C 208.806 606.243,210.329 606.424,210.740 598.680 C 210.917 595.339,211.205 594.997,213.542 595.346 C 214.974 595.561,221.943 596.009,229.028 596.342 L 241.911 596.947 241.268 594.307 C 240.914 592.855,240.332 590.464,239.974 588.994 C 239.403 586.649,240.754 587.362,251.025 594.826 L 262.727 603.329 278.224 602.144 L 293.721 600.958 301.641 606.303 L 309.561 611.647 324.312 605.266 L 339.063 598.886 341.010 601.266 L 342.958 603.646 347.784 598.265 C 352.547 592.957,352.712 592.875,360.174 592.140 C 366.697 591.497,367.810 591.091,368.271 589.187 C 369.753 583.054,372.740 566.143,372.401 565.804 C 372.187 565.590,367.275 566.166,361.485 567.083 C 346.684 569.427,347.429 569.601,346.012 563.462 C 344.365 556.325,344.382 556.250,347.688 556.250 C 350.255 556.250,351.025 555.360,354.451 548.438 C 357.363 542.551,358.838 540.625,360.430 540.625 C 366.431 540.625,372.049 534.320,369.025 530.978 C 367.265 529.034,367.322 529.000,371.122 529.713 C 380.503 531.473,399.419 502.541,399.458 486.372 C 399.523 458.995,342.159 431.130,334.941 455.033 C 333.715 459.091,333.197 459.113,328.923 455.293 L 325.521 452.253 328.062 449.547 C 329.459 448.059,332.648 445.643,335.148 444.178 C 343.865 439.070,343.173 428.778,332.727 408.164 C 331.265 405.279,330.217 402.794,330.399 402.643 C 330.580 402.492,332.135 401.917,333.854 401.364 C 339.641 399.505,338.857 395.008,329.991 379.202 C 323.948 368.428,323.919 367.884,329.167 363.667 C 335.753 358.374,334.685 355.228,323.118 345.854 C 319.434 342.868,316.558 339.329,314.494 335.240 C 308.754 323.869,303.350 319.179,293.802 317.281 C 286.947 315.918,284.139 312.534,282.220 303.321 C 280.620 295.641,281.548 266.167,283.768 254.186 C 285.724 243.624,285.500 242.688,280.182 239.168 C 274.942 235.701,271.874 230.796,268.389 220.313 C 262.483 202.551,260.567 201.230,243.391 203.074 C 220.812 205.497,220.299 205.513,218.881 203.803 C 216.606 201.062,221.057 199.650,229.386 200.471 L 236.587 201.180 237.793 197.986 C 239.208 194.235,240.335 194.074,245.561 196.875 C 249.895 199.198,254.690 199.599,255.841 197.735 C 258.283 193.784,255.282 181.519,251.333 179.309 C 249.808 178.456,251.791 176.001,264.627 162.848 C 284.150 142.844,292.679 130.202,292.703 121.234 C 292.710 118.416,296.234 113.927,299.945 112.007 C 303.398 110.222,305.701 105.230,304.775 101.540 C 303.086 94.812,276.548 85.417,259.234 85.417 C 255.608 85.417,252.295 84.502,247.917 82.292 C 240.164 78.378,239.089 78.395,232.756 82.531 C 227.358 86.056,206.250 88.476,206.250 85.570 C 206.250 81.655,211.170 78.751,215.570 80.069 C 220.494 81.544,223.365 80.384,227.827 75.118 C 232.032 70.155,230.316 67.760,222.528 67.723 C 220.054 67.711,222.675 65.521,237.632 55.102 C 264.567 36.340,271.922 28.453,270.660 19.686 C 269.741 13.302,222.692 9.264,217.279 15.104 C 214.414 18.196,213.542 18.365,213.542 15.829 C 213.542 5.024,196.593 -4.562,193.383 4.427" stroke="none" fill="#000000" fill-rule="evenodd"/></g></svg>