<?xml version="1.0" encoding="UTF-8" standalone="no"?>
<!-- Created with Inkscape (http://www.inkscape.org/) -->
<svg
   xmlns:dc="http://purl.org/dc/elements/1.1/"
   xmlns:cc="http://creativecommons.org/ns#"
   xmlns:rdf="http://www.w3.org/1999/02/22-rdf-syntax-ns#"
   xmlns:svg="http://www.w3.org/2000/svg"
   xmlns="http://www.w3.org/2000/svg"
   xmlns:xlink="http://www.w3.org/1999/xlink"
   xmlns:sodipodi="http://sodipodi.sourceforge.net/DTD/sodipodi-0.dtd"
   xmlns:inkscape="http://www.inkscape.org/namespaces/inkscape"
   width="486.89999"
   height="322.32001"
   id="svg4914"
   sodipodi:version="0.32"
   inkscape:version="0.46"
   version="1.0"
   sodipodi:docname="China_contour.svg"
   inkscape:output_extension="org.inkscape.output.svg.inkscape">
  <defs
     id="defs4916">
    <linearGradient
       id="linearGradient4949">
      <stop
         style="stop-color:#ffff00;stop-opacity:1;"
         offset="0"
         id="stop4951" />
      <stop
         style="stop-color:#ffbe00;stop-opacity:1;"
         offset="1"
         id="stop4953" />
    </linearGradient>
    <linearGradient
       inkscape:collect="always"
       xlink:href="#linearGradient4949"
       id="linearGradient4955"
       x1="1843.2104"
       y1="307.83276"
       x2="2300.2322"
       y2="584.35352"
       gradientUnits="userSpaceOnUse" />
  </defs>
  <sodipodi:namedview
     id="base"
     pagecolor="#ffffff"
     bordercolor="#666666"
     borderopacity="1.0"
     gridtolerance="10000"
     guidetolerance="10"
     objecttolerance="10"
     inkscape:pageopacity="0.0"
     inkscape:pageshadow="2"
     inkscape:zoom="0.35"
     inkscape:cx="-102.14286"
     inkscape:cy="520"
     inkscape:document-units="px"
     inkscape:current-layer="layer1"
     showgrid="false"
     inkscape:window-width="1280"
     inkscape:window-height="752"
     inkscape:window-x="0"
     inkscape:window-y="22" />
  <metadata
     id="metadata4919">
    <rdf:RDF>
      <cc:Work
         rdf:about="">
        <dc:format>image/svg+xml</dc:format>
        <dc:type
           rdf:resource="http://purl.org/dc/dcmitype/StillImage" />
        <dc:title>China contour</dc:title>
        <dc:date>2008-11-26</dc:date>
        <dc:creator>
          <cc:Agent>
            <dc:title>http://commons.wikimedia.org/wiki/User:Tryphon</dc:title>
          </cc:Agent>
        </dc:creator>
        <dc:contributor>
          <cc:Agent>
            <dc:title>Frank Bennett</dc:title>
          </cc:Agent>
        </dc:contributor>
        <dc:source>http://commons.wikimedia.org/wiki/Image:BlankMap-FlatWorld6.svg</dc:source>
        <cc:license
           rdf:resource="http://creativecommons.org/licenses/publicdomain/" />
        <dc:subject>
          <rdf:Bag>
            <rdf:li>China</rdf:li>
          </rdf:Bag>
        </dc:subject>
      </cc:Work>
      <cc:License
         rdf:about="http://creativecommons.org/licenses/publicdomain/">
        <cc:permits
           rdf:resource="http://creativecommons.org/ns#Reproduction" />
        <cc:permits
           rdf:resource="http://creativecommons.org/ns#Distribution" />
        <cc:permits
           rdf:resource="http://creativecommons.org/ns#DerivativeWorks" />
      </cc:License>
    </rdf:RDF>
  </metadata>
  <g
     inkscape:label="Layer 1"
     inkscape:groupmode="layer"
     id="layer1"
     transform="translate(-141.55022,-381.2019)">
    <g
       transform="matrix(0.9999987,0,0,0.9999987,-1681.7792,91.672374)"
       class="land cn"
       id="cn"
       style="fill:#ffff00">
      <path
         d="M 1833.5256,418.3175 C 1834.6228,418.3225 1835.536,417.8115 1835.5963,416.7335 C 1835.6756,415.2535 1834.8223,415.5305 1835.7431,413.9685 C 1836.4896,412.7045 1837.5199,413.1505 1838.6388,412.7735 C 1839.9426,412.3345 1840.8411,410.7915 1842.2494,410.7575 C 1842.152,410.2935 1842.2309,409.8135 1842.4871,409.3175 C 1843.2506,409.4705 1844.6802,410.1985 1845.5971,409.5825 C 1846.2853,409.1205 1847.1218,408.3515 1847.9482,408.2495 C 1848.8107,408.1435 1848.6473,410.1305 1849.0835,410.5855 C 1849.8243,411.3585 1851.9814,410.3095 1853.1735,410.4075 C 1855.3652,410.5865 1856.3651,407.6585 1857.0291,406.2235 C 1857.5759,405.0405 1858.2937,404.5965 1859.6427,404.7875 C 1861.3541,405.0295 1862.996,405.0605 1864.8147,404.7105 C 1865.7642,404.5275 1866.9198,404.8335 1867.8416,404.1915 C 1868.8599,403.4825 1869.1445,402.0825 1870.2092,401.2545 C 1872.8886,399.1715 1876.7596,398.9645 1879.6289,397.2785 C 1880.7838,396.6005 1881.3812,396.2345 1882.5476,396.2085 C 1884.0459,396.1745 1883.8198,395.6835 1883.7243,394.6995 C 1883.6018,393.4465 1883.4968,392.3485 1883.2545,391.1445 C 1882.9342,389.5685 1884.9518,389.2175 1886.2499,388.9415 C 1885.9291,388.5415 1885.5132,388.2295 1885.0024,388.0055 C 1885.7293,387.3485 1886.9148,386.3605 1887.6753,386.9975 C 1888.7966,385.6805 1887.08,385.5505 1887.405,384.4555 C 1887.8414,383.0215 1886.6599,382.0175 1886.1956,380.9495 C 1885.5574,379.4835 1884.8497,378.0095 1884.8251,376.2725 C 1884.8087,375.1275 1886.2813,373.2645 1885.263,372.7675 C 1884.4024,372.3485 1880.077,372.7845 1881.834,371.2285 C 1882.8314,370.3475 1885.3987,370.0985 1886.6157,369.7905 C 1888.8333,369.2295 1890.8701,369.0855 1893.1378,368.4365 C 1895.3973,367.7905 1895.352,368.6965 1896.7762,369.2885 C 1897.9187,369.7635 1899.5193,368.5425 1900.5168,369.3715 C 1901.663,370.3265 1902.3138,368.7475 1902.3634,367.8165 C 1902.4375,366.4215 1900.1752,367.2305 1899.7954,366.1895 C 1899.4697,365.2995 1900.8624,363.5975 1901.3397,362.6265 C 1902.0594,361.1625 1902.2804,359.6245 1902.8804,358.1475 C 1903.447,356.7505 1904.7373,355.2155 1904.9673,353.8565 C 1905.2449,352.2175 1906.3904,351.7555 1907.7517,352.4525 C 1908.9011,353.0405 1909.8758,353.5995 1911.266,353.9155 C 1913.0774,354.3265 1915.2375,353.6695 1917.1487,353.8445 C 1918.6131,353.9785 1918.411,355.7485 1920.2426,354.7035 C 1921.6543,353.8995 1923.1793,353.7915 1924.5353,352.9855 C 1927.01,351.5165 1924.0343,347.4705 1924.1976,345.8855 C 1924.3066,345.0255 1925.1796,342.6765 1926.4397,342.0735 C 1927.6502,341.4935 1928.754,342.0875 1929.9879,341.6775 C 1933.115,340.6405 1933.4188,339.5635 1933.5848,337.4125 C 1933.6922,336.0075 1935.5836,335.9065 1936.5916,335.9995 C 1938.2046,336.1475 1938.9563,336.1735 1940.7802,335.7305 C 1941.5889,335.5345 1942.8421,336.7535 1942.0376,337.2485 C 1940.7483,338.0415 1941.7189,338.8675 1942.652,339.0565 C 1944.4872,339.4255 1942.3687,340.2855 1943.2976,340.7635 C 1944.589,341.4265 1946.8047,341.3555 1947.3985,342.6565 C 1948.0612,344.1165 1951.1546,345.8765 1953.5052,345.3025 C 1955.0625,344.9225 1957.1788,347.8235 1958.2719,346.3175 C 1958.9181,346.5285 1958.6927,347.1205 1959.133,347.4695 C 1959.7298,347.9445 1960.5825,347.9845 1961.1101,348.5575 C 1962.1039,349.6335 1961.9143,351.2795 1962.8401,352.3865 C 1963.6475,353.3555 1964.8515,354.0115 1965.6965,354.9495 C 1967.0954,356.5055 1965.7718,357.8295 1965.7025,359.7605 C 1965.6553,361.0665 1967.0547,361.3385 1965.604,362.9815 C 1964.3838,364.3645 1963.3083,365.6405 1964.0468,366.8785 C 1964.5756,367.7685 1965.1999,369.2805 1966.7009,369.1755 C 1968.6095,369.0415 1970.0271,370.0695 1971.8085,370.1495 C 1973.6048,370.2305 1975.2669,370.7315 1977.1099,370.6665 C 1978.8751,370.6035 1980.5947,370.4885 1982.2827,370.6045 C 1986.3103,370.8795 1988.1908,373.0295 1991.324,374.3835 C 1992.7515,375.0015 1993.8707,375.9345 1995.3182,376.5215 C 1996.3688,376.9475 1997.6784,376.8675 1998.9048,377.0285 C 2000.4475,377.2325 1998.6276,378.2695 1999.5274,378.9055 C 2000.7505,379.7705 2001.518,380.0945 2001.9138,381.6225 C 2002.2239,382.8285 2002.6309,384.0615 2003.2014,385.1485 C 2003.8643,386.4175 2005.3233,387.0855 2006.2601,388.1505 C 2006.9142,388.8955 2006.8405,389.9865 2008.0603,390.1675 C 2009.7365,390.4155 2011.6565,389.8435 2013.4719,389.6835 C 2017.3732,389.3405 2020.7587,390.9435 2024.4571,391.1465 C 2026.4052,391.2535 2028.3252,391.5285 2030.3464,391.4825 C 2032.2832,391.4385 2034.3567,390.6215 2036.2495,390.7455 C 2038.2726,390.8775 2040.1364,391.2665 2042.0816,391.5245 C 2043.7649,391.7485 2045.9369,391.4815 2047.373,392.0545 C 2048.7291,392.5965 2049.1158,393.9205 2050.2888,394.6125 C 2052.0033,395.6265 2054.8837,395.6115 2057.0459,396.0655 C 2060.3202,396.7535 2062.6644,398.7445 2066.8566,397.9055 C 2068.7688,397.5235 2068.8402,397.7805 2069.3522,398.8695 C 2069.8533,399.9395 2072.4281,398.8005 2072.8676,399.6585 C 2072.7484,399.4255 2083.5014,395.0865 2084.5141,394.7045 C 2086.5522,393.9355 2088.8796,393.5765 2090.8143,393.3645 C 2093.1181,393.1125 2095.8534,392.5655 2098.0389,392.5285 C 2101.2985,392.4725 2104.5919,393.5285 2108.3653,391.9215 C 2110.1332,391.1695 2112.8308,390.9215 2114.4332,389.8145 C 2115.9697,388.7545 2116.861,387.1615 2118.2184,385.9665 C 2119.4797,384.8565 2120.9878,384.3815 2122.4659,383.7895 C 2123.3042,383.4555 2124.049,383.0125 2124.7186,382.3815 C 2125.111,382.0135 2125.8577,382.3715 2126.1362,382.0315 C 2127.8202,379.9685 2122.8598,377.9905 2122.6731,376.4195 C 2122.4909,374.9045 2124.1141,370.7505 2127.0832,370.2455 C 2130.7343,369.6245 2133.1812,372.1895 2136.1785,372.6675 C 2136.8255,372.7715 2138.5527,373.3195 2139.4615,372.7735 C 2140.8783,371.9195 2142.6209,371.3415 2143.7693,370.2855 C 2144.7925,369.3435 2145.7182,368.2275 2146.9268,367.4085 C 2148.085,366.6245 2150.0847,367.3075 2150.9778,367.3895 C 2153.3604,367.6075 2156.444,366.4725 2158.9588,364.5615 C 2160.1866,363.6375 2159.1824,362.2965 2160.8865,360.8745 C 2162.4777,359.5495 2163.5516,359.2425 2165.2234,359.2075 C 2166.4301,359.1825 2167.1945,359.7125 2167.9286,358.1155 C 2168.4974,356.8795 2169.8769,357.6715 2170.3755,357.8445 C 2170.8979,358.0265 2173.6139,356.6335 2174.621,356.4185 C 2175.4527,356.2405 2176.0424,356.4045 2176.7197,356.4805 C 2177.1512,356.5395 2177.6088,356.5605 2178.0904,356.5435 C 2178.4236,356.3005 2178.7597,356.0605 2179.0991,355.8225 C 2179.6582,355.8195 2180.5306,356.4275 2181.1222,356.5405 C 2182.1961,356.7435 2183.2883,356.9305 2184.4503,357.0165 C 2188.7141,357.3305 2186.7761,353.8875 2185.7089,352.7565 C 2183.1973,350.1075 2179.9392,347.7885 2176.4465,345.9505 C 2174.8852,345.1125 2172.2076,344.4475 2169.4403,346.5785 C 2166.0791,349.3115 2165.5029,346.4585 2162.5731,346.5735 C 2161.5856,346.6125 2159.7873,346.2715 2158.7246,346.6265 C 2157.4051,347.0755 2156.6841,348.2715 2155.5873,347.5075 C 2154.8897,347.0215 2152.3388,345.4375 2154.1149,344.0905 C 2155.1154,343.3315 2155.7841,343.3575 2155.718,342.4115 C 2155.6509,341.4725 2156.143,340.6875 2156.854,339.6255 C 2158.9908,336.4285 2160.6796,333.2325 2162.4514,330.0495 C 2164.4461,331.1865 2167.4678,331.1565 2169.4367,332.1735 C 2171.6748,333.3305 2173.596,331.0535 2176.3898,329.6155 C 2178.3749,328.6155 2181.3235,329.5065 2182.5697,327.3695 C 2183.2569,326.2305 2182.6773,325.9785 2181.7056,325.7605 C 2181.0634,325.6155 2181.9336,324.6185 2182.2919,324.0605 C 2182.8637,323.1715 2183.8663,322.7705 2184.0773,321.8575 C 2184.101,321.4425 2184.385,321.0065 2184.9326,320.5485 C 2186.0619,319.6095 2185.829,319.0835 2186.521,318.1605 C 2187.9875,316.2045 2188.3046,314.6985 2191.5116,313.3145 C 2195.1138,311.7685 2192.895,309.9375 2193.0665,308.5745 C 2193.2169,307.3655 2192.1199,306.3755 2190.0193,306.9415 C 2188.1414,307.4475 2188.1765,306.4715 2187.932,305.6425 C 2190.8665,304.9535 2192.7371,301.8435 2195.9444,301.3755 C 2199.7688,300.8185 2203.6704,299.7685 2207.0392,299.9315 C 2210.3872,300.0925 2214.1234,299.0465 2217.0671,299.8145 C 2218.3207,300.1425 2219.33,300.7545 2220.2882,301.3185 C 2221.5988,302.0895 2223.7827,302.1005 2225.0018,302.9055 C 2226.4335,301.1425 2231.0376,303.1795 2230.9422,303.8955 C 2230.8561,304.5405 2233.0163,305.3515 2233.557,305.7545 C 2233.9746,306.0675 2233.2206,306.6765 2233.5688,306.9785 C 2234.114,307.4505 2234.9439,307.5785 2235.3341,308.1735 C 2235.7572,308.8235 2236.9348,309.3545 2236.724,310.2795 C 2236.5966,310.8305 2238.4832,310.4995 2237.7637,311.4295 C 2236.7107,312.8075 2238.0144,313.4865 2238.6725,314.1555 C 2239.2788,314.7705 2238.9849,316.4615 2240.007,316.7855 C 2241.3769,317.2285 2240.4329,319.0535 2241.0905,319.9285 C 2241.8267,320.9085 2242.9962,321.6095 2243.6368,322.6515 C 2244.1793,323.5345 2243.4509,324.9145 2243.8886,325.8325 C 2244.3745,326.8555 2245.7235,326.4945 2245.0699,328.0655 C 2244.1542,330.6385 2247.5273,332.8685 2250.8747,332.3795 C 2252.2915,332.1725 2254.0937,331.8135 2254.8446,332.3685 C 2256.0679,333.2765 2257.7225,333.4585 2259.1627,334.1545 C 2259.2975,332.4665 2260.9933,334.8025 2261.5837,334.8025 C 2262.9997,334.8025 2263.3716,336.6545 2264.1387,337.2645 C 2265.3737,338.2495 2267.6994,337.4585 2269.1042,338.1145 C 2269.5216,338.3105 2268.2463,339.7475 2268.3438,340.1975 C 2268.4543,340.7085 2269.1818,341.0765 2269.5842,341.4005 C 2270.7775,342.3595 2269.732,343.1955 2269.386,344.6725 C 2269.1398,345.7215 2271.015,348.2135 2272.4548,348.0665 C 2273.2611,347.9835 2274.1332,347.6895 2274.9038,347.6895 C 2276.0602,347.6895 2276.596,348.3195 2277.8589,348.1935 C 2279.2809,348.0505 2282.9825,348.2655 2284.0988,346.8475 C 2285.3379,345.4015 2288.0447,344.3195 2289.5359,344.4725 C 2289.6284,344.4825 2290.6368,345.0195 2290.9987,344.6625 C 2291.8378,343.8355 2291.9388,343.6025 2293.1781,343.3595 C 2294.3168,343.1355 2297.2758,341.6395 2297.8435,342.2175 C 2298.1541,342.5345 2299.6557,343.1465 2300.2322,343.2255 C 2299.3796,344.2005 2299.0901,344.9965 2299.3312,345.6925 C 2299.6851,346.7105 2301.1164,348.2815 2298.8508,349.9925 C 2298.3699,350.3555 2297.3977,350.4305 2296.8366,350.7425 C 2295.436,351.5195 2296.3326,352.0965 2296.2378,352.7275 C 2296.1609,353.2395 2295.5979,353.8455 2295.3559,354.3855 C 2294.909,355.3795 2295.3879,356.2185 2294.5612,357.2665 C 2293.6019,358.4835 2295.0501,360.2855 2292.4979,361.1535 C 2293.2979,362.0945 2291.8468,362.3515 2291.1524,363.4585 C 2290.639,364.2755 2291.2594,364.9345 2290.5427,365.7955 C 2289.5611,366.9785 2288.3037,366.5435 2288.0635,368.1995 C 2287.9779,368.7875 2288.0232,369.3615 2287.7009,370.0155 C 2287.18,371.0695 2281.8856,369.3755 2281.0192,369.1725 C 2280.638,369.0835 2278.7271,368.0665 2278.3099,368.4065 C 2277.3862,369.1575 2276.5734,370.5085 2275.3982,370.9625 C 2274.4582,371.3265 2272.9719,371.3775 2272.1612,371.8765 C 2271.3819,372.3555 2272.7437,373.5965 2272.838,373.8215 C 2273.7366,375.9895 2273.797,378.5215 2273.506,381.1995 C 2273.2584,383.4445 2274.6633,384.9395 2272.7886,387.5955 C 2271.9714,388.7535 2272.9376,388.5935 2271.1496,389.0905 C 2269.7212,389.4875 2268.6939,389.2085 2267.248,390.3865 C 2268.9089,390.8805 2267.9555,391.8535 2268.7386,392.8345 C 2267.9163,391.7185 2266.0707,391.3215 2265.8944,389.7785 C 2265.7466,388.5005 2264.7303,388.1405 2263.0327,388.2255 C 2262.7604,389.1445 2262.7541,391.7685 2261.5482,392.6655 C 2260.6118,393.3625 2259.5745,392.6415 2258.5521,393.1765 C 2257.0566,393.9595 2257.9069,395.5715 2255.3737,396.0865 C 2253.1076,396.5475 2251.289,396.1195 2249.0376,396.5785 C 2249.2887,397.8605 2251.7483,399.4015 2250.222,401.1665 C 2249.4078,402.1095 2245.6964,401.4235 2244.7323,401.2755 C 2243.836,401.1395 2242.9324,400.9435 2242.349,400.4815 C 2241.6638,399.9395 2241.65,398.3555 2240.2223,398.4925 C 2239.4801,398.5645 2238.914,399.2965 2238.0628,399.3125 C 2237.1354,400.9495 2236.7505,401.8325 2235.3235,403.4095 C 2234.7175,404.1055 2234.0092,405.2835 2233.0831,405.7575 C 2232.609,405.9995 2230.9119,406.0595 2230.7476,406.6035 C 2230.5332,407.3105 2229.8902,407.2145 2229.2769,407.7375 C 2228.7143,408.0765 2228.1453,408.2855 2227.5708,408.3645 C 2226.9777,408.5875 2225.9966,409.6295 2225.6835,409.7065 C 2223.7502,410.1815 2221.5861,411.8975 2220.7447,413.6545 C 2219.7545,415.7235 2216.294,415.7935 2215.6379,414.5795 C 2215.2811,415.6725 2213.6886,415.5485 2212.9907,415.5145 C 2212.9025,416.3145 2212.044,416.4645 2211.3448,416.5655 C 2209.895,416.7735 2208.4532,417.7275 2207.0408,418.4665 C 2205.645,419.1975 2204.7778,419.5055 2204.0103,420.8275 C 2203.4521,421.7905 2202.2948,421.6995 2202.1385,422.6415 C 2201.7819,422.3105 2201.2833,422.1665 2200.6383,422.2095 C 2200.9805,423.2495 2196.1651,425.7905 2196.5103,423.3315 C 2196.6938,422.0485 2199.3592,422.0735 2199.908,421.7005 C 2200.7043,421.1595 2200.226,420.7115 2200.4274,420.1715 C 2200.6781,419.4975 2201.9913,419.1445 2202.566,418.6815 C 2199.6655,419.6735 2199.1425,418.1485 2197.1361,417.8175 C 2197.769,417.3095 2198.5398,416.9325 2199.2649,416.8095 C 2198.8123,414.9195 2199.6286,415.2255 2201.8161,413.8285 C 2202.8196,413.1875 2204.0197,411.2755 2204.5234,410.4015 C 2206.3345,407.2545 2200.7174,407.9215 2201.6297,405.1455 C 2201.006,406.9735 2199.3462,406.1755 2198.4554,405.8285 C 2197.3289,405.3895 2193.8114,406.7715 2195.4869,407.5215 C 2193.81,407.7995 2191.8574,409.9875 2191.3522,411.3275 C 2190.937,412.4315 2186.8264,413.6435 2185.7782,414.1455 C 2184.7655,414.6305 2183.8714,414.9865 2183.0459,415.8015 C 2181.6994,417.1315 2182.7968,417.7895 2181.9707,418.8095 C 2180.0141,421.2285 2178.1887,420.4175 2175.7196,421.5205 C 2174.032,422.2755 2173.5657,420.2955 2171.9774,420.5515 C 2169.6721,420.9235 2169.258,424.1495 2169.1918,425.3705 C 2169.0754,427.5075 2171.3098,428.2905 2172.6103,429.4945 C 2173.0194,429.8745 2174.342,430.0155 2175.1152,429.7715 C 2176.3995,429.3685 2175.9735,430.8475 2176.844,430.9925 C 2177.3308,430.4885 2177.5628,429.9845 2177.5399,429.4805 C 2179.1092,429.4805 2180.5858,430.9445 2180.7252,432.2345 C 2180.9154,434.0125 2178.6826,435.7295 2180.0732,437.2225 C 2181.0056,438.2245 2182.5825,438.4955 2184.3994,438.2415 C 2185.678,438.0615 2187.4087,437.4465 2186.5745,436.3205 C 2187.4007,435.9605 2191.5878,433.5845 2189.3219,433.5855 C 2190.5167,433.8115 2192.2085,432.7465 2193.5345,432.4175 C 2194.7873,432.1055 2196.0598,433.1815 2196.3679,433.9345 C 2196.6355,434.5905 2197.1571,434.5125 2198.0621,434.2885 C 2198.5829,434.1605 2198.7341,435.0195 2198.8632,435.2405 C 2199.4541,436.2535 2201.9681,434.7625 2202.5552,435.8165 C 2202.8262,435.5105 2203.0782,435.1995 2203.3115,434.8805 C 2204.4332,435.9535 2207.0845,435.1535 2208.1352,436.2485 C 2207.7841,436.3865 2207.4334,436.5305 2207.083,436.6805 C 2208.169,437.9705 2205.416,438.3325 2206.5147,439.4065 C 2206.9542,439.8375 2206.558,440.4925 2205.5547,440.8085 C 2203.8996,441.3305 2204.3302,440.1275 2204.1182,439.3445 C 2203.7616,439.7195 2203.3833,440.0795 2202.9824,440.4245 C 2203.328,439.3415 2202.4536,439.6565 2201.5418,440.2055 C 2201.0145,440.5225 2197.4976,442.3165 2199.7317,440.7855 C 2198.6077,441.3135 2196.4102,442.7105 2195.356,442.8775 C 2194.6107,442.9955 2193.309,442.1265 2193.1697,443.4485 C 2194.6878,442.5185 2195.1199,443.9085 2194.0303,444.8885 C 2194.0161,444.1295 2193.0887,444.0785 2192.5401,444.9605 C 2192.0729,445.7085 2192.7772,446.1445 2192.3003,446.9155 C 2192.0829,447.2685 2190.7226,447.7725 2190.4091,447.6965 C 2189.4221,447.4545 2190.3756,446.2625 2189.6418,445.8245 C 2190.104,447.2185 2189.1332,446.0585 2188.2675,446.1845 C 2187.9,447.1225 2188.5881,448.4395 2189.6422,448.4165 C 2187.3402,448.7245 2187.1096,452.3205 2184.7457,451.7285 C 2184.3781,452.6985 2183.2953,454.7475 2182.4166,455.5865 C 2180.9549,456.9825 2181.316,457.9015 2181.1619,459.2885 C 2182.6614,458.3045 2183.8438,459.7085 2184.4639,460.3185 C 2185.6848,461.5225 2187.5084,461.9665 2189.1138,462.7945 C 2190.3996,463.4435 2190.2356,465.5875 2190.7248,466.7755 C 2191.4651,468.5755 2192.0423,470.6585 2193.2769,472.1385 C 2194.1257,473.1585 2194.7674,474.6885 2194.3516,476.2225 C 2193.8575,478.0445 2196.6707,478.3025 2197.8533,478.8875 C 2198.8898,479.4005 2198.115,480.0835 2198.405,480.9595 C 2198.6298,481.6325 2199.3723,481.6335 2199.9572,481.9685 C 2200.9193,482.5205 2203.0674,483.7355 2201.7411,485.3515 C 2200.2523,484.9205 2198.973,483.3655 2197.0229,483.8515 C 2194.4082,484.5045 2195.0474,482.8735 2193.2465,482.1475 C 2191.437,481.4185 2189.7072,483.9115 2188.2814,483.0075 C 2187.5759,482.5605 2187.3526,481.7975 2187.0547,481.0615 C 2186.6852,480.1485 2185.687,480.2005 2184.9458,479.6645 C 2185.2978,480.0065 2185.2738,480.5975 2184.8292,481.1035 C 2185.4097,480.6365 2185.8734,480.6125 2186.2179,481.0315 C 2186.003,480.8255 2185.7988,480.6095 2185.607,480.3845 C 2186.634,480.0575 2187.7072,482.3585 2186.1804,481.6085 C 2187.1435,482.3905 2187.981,484.1305 2189.9457,483.3875 C 2190.7362,483.0885 2190.873,482.4515 2191.736,482.4955 C 2192.4797,482.5325 2193.3409,482.8525 2193.6276,483.4385 C 2193.8062,483.8025 2193.3019,484.2465 2193.7333,484.4885 C 2194.4347,484.8845 2195.3759,485.0025 2196.1349,485.3255 C 2197.7726,486.0245 2198.8453,487.6365 2200.3443,488.5425 C 2201.1699,489.0425 2202.6625,491.0295 2202.1903,492.2315 C 2201.9714,492.7895 2200.8214,492.5765 2200.4814,492.6055 C 2199.1661,492.7165 2198.1341,493.7195 2196.9626,494.3925 C 2196.1814,494.8415 2195.3296,495.0735 2194.9256,495.8625 C 2194.7457,496.2135 2194.3863,497.0655 2193.845,497.0965 C 2192.9212,497.1485 2192.6853,496.3065 2191.5279,496.6865 C 2190.5561,497.0055 2189.6703,497.7525 2188.7937,498.3115 C 2189.3545,498.0845 2191.6477,496.6495 2192.0547,497.0025 C 2192.8278,497.6735 2192.2326,499.4965 2193.7409,499.4635 C 2193.4914,499.2735 2193.2219,499.1055 2192.9324,498.9595 C 2194.6238,499.2185 2196.4166,497.1895 2197.9735,497.6605 C 2199.0459,497.9845 2199.3177,498.9095 2199.8585,499.6945 C 2200.5009,500.6265 2202.5596,500.8285 2203.7514,501.1195 C 2202.7327,501.5175 2202.1229,502.1605 2201.2882,502.8475 C 2200.9578,503.2125 2200.5937,503.5485 2200.1958,503.8555 C 2199.6262,504.1965 2199.0794,504.0155 2198.5022,504.4315 C 2198.554,504.7105 2198.6699,504.9505 2198.85,505.1515 C 2199.5281,504.5215 2200.7076,503.6415 2201.2927,504.3595 C 2201.003,503.9375 2201.4787,502.7955 2202.187,503.2475 C 2202.9722,503.7505 2201.8683,504.5285 2202.0759,505.2665 C 2202.0801,505.2815 2202.2768,507.7095 2201.4791,507.1055 C 2201.0356,506.7695 2201.3355,505.9045 2200.9726,505.5115 C 2200.95,505.9855 2200.8896,506.4655 2200.7859,506.9515 C 2200.1061,507.1115 2199.7919,506.7255 2199.8143,506.1585 C 2199.7098,507.4935 2199.5503,506.6465 2199.3581,506.1585 C 2199.0641,506.7385 2198.6664,507.2665 2198.1639,507.7425 C 2199.1806,507.5545 2200.3728,508.4365 2200.2419,509.3985 C 2199.926,508.9465 2199.5667,508.9945 2199.1631,509.5435 C 2199.964,509.4895 2200.5655,510.5445 2199.5208,511.0705 C 2198.225,511.7235 2197.0184,510.4425 2196.1776,510.0475 C 2196.5747,510.4335 2196.6484,511.2465 2197.1952,511.4865 C 2197.967,511.8255 2198.75,511.1405 2198.9928,512.1645 C 2199.1091,512.6535 2200.1631,513.8905 2199.2974,514.4905 C 2198.5117,515.0355 2197.7228,514.9965 2197.766,516.0945 C 2196.9149,515.6625 2197.2156,514.4055 2196.3328,514.0065 C 2195.9182,514.4825 2195.8596,514.5805 2195.2917,514.7985 C 2196.7174,514.9905 2193.3363,519.2375 2191.7185,516.3825 C 2191.748,517.4325 2194.2099,517.2295 2193.553,518.4425 C 2192.9881,519.4865 2191.353,521.3805 2192.5055,522.0715 C 2191.6527,522.4145 2191.5376,522.8845 2191.4507,523.5745 C 2191.2628,525.0635 2190.4083,523.5005 2190.5604,524.5185 C 2190.1773,524.0935 2189.8023,523.6615 2189.4363,523.2225 C 2189.2692,523.7425 2191.3897,525.5355 2189.3572,525.0945 C 2189.5024,525.9485 2188.6041,526.7285 2187.7191,526.9665 C 2188.2763,528.1815 2188.5019,530.3415 2186.0221,529.7025 C 2186.8713,529.3885 2187.396,528.6005 2187.2509,527.8305 C 2186.8198,528.1035 2186.4625,528.4395 2186.1935,528.8385 C 2185.7647,528.4885 2185.5071,527.9795 2185.5131,527.3985 C 2185.0575,527.9305 2184.4118,528.2525 2183.8681,527.9745 C 2184.1397,528.3865 2184.1963,528.8665 2184.0054,529.4145 C 2185.33,528.8815 2186.3298,530.9475 2184.6213,530.7825 C 2184.5142,531.6715 2185.5585,532.1485 2186.0487,531.0705 C 2186.7842,531.9915 2185.7722,531.9495 2185.0293,532.5465 C 2184.2635,533.1605 2183.7679,534.0085 2183.3076,534.8145 C 2182.6517,534.0895 2181.5099,533.6795 2180.5427,533.3755 C 2181.2508,533.8645 2181.4759,535.2385 2182.6547,535.0535 C 2183.8209,534.8695 2184.4427,533.7225 2185.1041,535.1035 C 2184.2836,535.4085 2184.3164,536.6145 2183.9262,537.3775 C 2183.2803,538.6375 2185.2779,538.6775 2184.5761,539.9995 C 2184.5331,539.0395 2184.2594,539.0395 2183.7531,539.9995 C 2183.4265,539.3065 2182.8849,538.7165 2182.1429,538.4155 C 2181.9686,539.0205 2181.501,539.5535 2180.9004,539.8545 C 2181.3823,540.1385 2182.6989,540.3205 2182.3001,541.2225 C 2181.7248,542.5235 2181.0413,540.6505 2180.7145,542.3035 C 2180.6932,541.5585 2180.2164,540.2705 2179.1935,541.3675 C 2180.1457,541.7165 2178.9652,543.1865 2180.1493,543.2385 C 2179.7267,544.0355 2177.7578,545.2595 2178.0285,543.8865 C 2177.0876,544.5205 2177.2421,544.6905 2177.8394,545.1115 C 2178.5815,545.6355 2177.6079,546.8845 2177.107,547.4145 C 2176.7558,546.9975 2176.4231,546.5645 2176.1092,546.1185 C 2175.6649,547.0665 2174.2703,547.6675 2173.9598,546.5505 C 2173.2395,547.3425 2171.9583,546.8425 2172.5684,547.9895 C 2172.0371,547.8295 2171.4741,547.8045 2170.8779,547.9185 C 2171.2881,548.4665 2171.9937,548.6745 2172.7709,548.4225 C 2172.5112,548.9985 2172.7301,549.3375 2173.3264,549.3585 C 2173.0136,549.8905 2172.5153,549.8885 2172.0693,550.2105 C 2171.3734,550.7145 2171.5821,551.6755 2170.5473,552.2385 C 2171.0096,551.5395 2170.8397,551.2755 2170.0338,551.4465 C 2170.183,552.2225 2169.5535,552.9125 2169.4056,553.6785 C 2169.5885,552.2255 2167.8187,553.7505 2167.0342,553.7505 C 2166.8386,553.9315 2165.7976,556.4415 2165.1346,555.6785 C 2164.5522,555.0075 2164.1435,554.6585 2163.783,555.9165 C 2163.3848,557.2995 2162.6582,557.6255 2161.2787,557.4225 C 2162.0698,557.7415 2163.1327,557.7215 2163.1741,558.7905 C 2162.4303,557.6565 2162.1757,559.4225 2161.6302,558.7185 C 2161.1765,559.5975 2161.5037,560.7185 2160.2551,561.0705 C 2159.439,561.3005 2158.0423,561.5945 2157.3613,561.1665 C 2158.2621,562.3115 2153.8953,562.8915 2155.1629,561.0945 C 2154.397,561.7975 2153.606,561.5025 2152.9389,561.1665 C 2152.9741,561.7805 2154.5135,562.5975 2153.9351,563.3465 C 2153.5792,563.8055 2153.0231,563.4175 2152.7814,563.2345 C 2152.0296,562.6675 2151.2258,562.7565 2151.5069,561.7425 C 2150.9418,562.3555 2149.0696,563.3585 2148.5678,562.9675 C 2149.7888,563.4115 2148.7726,564.3845 2148.0263,564.1735 C 2147.1491,563.9265 2147.3746,562.8455 2148.0897,562.3195 C 2147.2162,562.3165 2146.3569,562.7615 2145.7581,563.4715 C 2146.7135,563.6465 2145.4851,564.6325 2146.5275,564.9105 C 2146.277,565.1015 2146.0061,565.2455 2145.7137,565.3435 C 2145.5206,563.7975 2141.8572,563.9355 2140.8092,565.1995 C 2141.0719,563.0915 2138.4713,562.5425 2139.1589,560.3035 C 2138.6157,561.7385 2138.8051,560.8815 2138.2658,560.3755 C 2138.8948,559.5695 2139.7654,559.4335 2140.6158,559.5835 C 2139.6105,558.8075 2138.3798,560.3735 2137.3194,559.8715 C 2138.8446,560.5145 2136.9136,561.7555 2135.879,561.3835 C 2136.2633,561.5455 2137.7102,562.1065 2137.7063,562.5925 C 2137.5225,562.7195 2137.3333,562.7245 2137.1398,562.6075 C 2137.9539,563.2035 2139.6664,566.0845 2138.5203,567.3595 C 2137.298,568.7115 2135.9077,564.8015 2135.5215,564.2635 C 2135.2319,565.5525 2136.6181,566.7065 2137.057,567.7195 C 2136.4895,567.8435 2136.0161,568.2555 2135.8355,568.7995 C 2135.3396,568.5365 2135.0172,568.0455 2135.123,567.4315 C 2133.6804,568.0325 2134.816,569.5195 2133.7923,570.3835 C 2133.007,569.1095 2132.0936,570.1345 2131.2569,571.0425 C 2130.6909,571.6565 2129.3035,570.3465 2130.3456,569.5195 C 2129.6692,569.7615 2129.3234,569.4625 2129.5104,568.7995 C 2129.2434,569.6355 2129.7206,570.4985 2129.3095,571.3345 C 2128.7926,572.3875 2126.3306,570.4765 2125.7859,570.3115 C 2126.829,571.9545 2125.1991,571.1995 2124.2356,571.2485 C 2125.786,571.8905 2122.951,574.3435 2122.1258,572.8325 C 2121.8582,573.3755 2121.4018,573.9125 2120.8014,574.1285 C 2121.5356,573.0295 2120.0564,573.6975 2119.2765,573.8705 C 2118.3099,574.0855 2116.9355,574.3815 2116.2088,575.2085 C 2116.4444,574.7965 2116.7271,574.4125 2117.0572,574.0565 C 2116.3755,574.4755 2115.7745,575.1995 2116.09,575.9285 C 2114.4208,576.3985 2115.1611,575.2865 2114.3278,574.5605 C 2113.8127,575.3815 2114.8569,575.9185 2113.9923,576.6585 C 2113.3822,577.1795 2112.1572,577.7125 2112.4671,578.6575 C 2112.6443,579.1985 2113.4207,579.2265 2113.8954,579.3965 C 2114.556,579.6325 2114.0903,581.1715 2113.8044,579.5285 C 2113.7022,580.7925 2115.3876,581.4505 2115.0874,582.7075 C 2114.582,584.8255 2111.8226,583.7875 2110.5134,584.3535 C 2110.6971,583.6255 2110.0259,582.4625 2111.2349,583.1295 C 2111.1657,581.9065 2108.8833,582.1535 2110.0516,580.4655 C 2108.9959,580.6005 2109.8812,579.1535 2109.0314,579.0625 C 2108.4913,579.0045 2108.6669,576.9885 2109.0929,576.6165 C 2109.9322,575.8835 2109.1207,575.3735 2110.2109,574.7815 C 2111.8885,573.8715 2109.8278,573.3485 2109.3314,572.8345 C 2109.4215,573.0935 2109.4996,573.3575 2109.5655,573.6265 C 2108.3901,573.8655 2108.1009,572.2155 2107.7112,571.5385 C 2107.2494,572.1355 2107.4184,572.6975 2107.9799,572.9775 C 2107.4732,573.4475 2105.8241,574.6785 2105.4394,573.6975 C 2104.205,575.7185 2104.5155,572.6665 2104.1165,572.3295 C 2103.6486,571.9335 2101.5998,572.7675 2102.9783,571.2505 C 2102.7301,571.1585 2102.4735,571.0865 2102.2086,571.0335 C 2102.0534,571.5595 2102.0947,572.0405 2102.335,572.4735 C 2101.4636,572.3405 2101.3223,570.6755 2100.3928,570.8895 C 2100.8816,570.3835 2100.7877,569.8915 2100.2297,569.6655 C 2099.9092,570.1795 2099.5585,570.9065 2099.6011,569.8815 C 2099.2328,570.9425 2100.7759,571.6015 2099.982,572.6835 C 2099.6005,573.2035 2098.7864,571.9945 2098.3639,572.0415 C 2098.5427,572.6625 2098.1501,573.2435 2097.5209,573.5535 C 2097.6014,572.9075 2095.9111,572.6885 2095.1359,572.3435 C 2094.0513,571.8615 2092.204,573.3735 2091.938,572.1855 C 2091.6701,572.3305 2091.4013,572.4745 2091.1315,572.6185 C 2090.9876,571.4065 2089.3537,571.5165 2088.6388,570.8175 C 2088.3791,570.5635 2089.0748,570.1955 2088.5747,570.0425 C 2087.855,569.8205 2087.048,568.7745 2086.1346,569.4495 C 2085.8204,567.5345 2084.9874,566.0895 2085.3158,564.1225 C 2087.0617,564.7455 2087.0604,560.2935 2084.2637,561.5375 C 2083.1272,562.0435 2082.7482,561.1555 2082.0005,560.7595 C 2081.0941,560.2805 2080.3414,561.6815 2079.388,560.8725 C 2077.9601,559.6625 2076.5678,558.9845 2075.5799,557.2835 C 2074.8477,558.4955 2073.3353,558.6335 2072.2687,559.3985 C 2071.5874,559.8875 2072.552,560.8675 2071.6773,561.6135 C 2070.9579,562.2285 2066.8304,564.0525 2067.5314,562.0345 C 2066.1916,562.0865 2065.3833,565.1275 2064.9559,564.8355 C 2064.3467,564.4195 2063.8992,563.7555 2063.4413,563.1955 C 2062.4657,562.0045 2062.347,563.2955 2061.8083,564.1945 C 2060.6302,562.5855 2060.4977,562.2375 2059.066,564.2505 C 2057.7494,566.1035 2056.611,564.1315 2055.7569,563.3385 C 2053.9018,561.6175 2053.166,564.0885 2052.059,565.4305 C 2051.4605,566.1555 2050.952,565.3145 2050.3683,565.3655 C 2049.9738,565.3965 2049.5822,565.4685 2049.1917,565.5795 C 2048.6668,565.7265 2048.9152,564.9145 2048.4744,564.9145 C 2046.5504,564.9145 2046.9244,568.5515 2047.2932,569.2465 C 2047.7109,570.0345 2048.2848,570.7885 2048.4307,571.7125 C 2048.5928,572.0045 2048.7359,572.3065 2048.86,572.6195 C 2048.8489,573.1455 2048.3205,573.6035 2048.2581,574.1315 C 2048.1908,574.6905 2049.198,575.8665 2048.5815,576.3625 C 2047.7501,577.0335 2047.1368,575.5135 2046.1862,575.7825 C 2044.7367,576.1945 2044.5618,576.2925 2044.2043,574.8885 C 2043.9004,573.6805 2043.3141,572.5075 2043.4246,571.1785 C 2042.0405,572.0835 2039.5152,574.6175 2038.0332,573.5815 C 2037.3246,573.0865 2036.9753,574.2325 2036.3393,574.0985 C 2035.6888,573.9595 2035.698,572.5105 2036.0817,572.0425 C 2033.5182,572.0095 2035.7799,569.5405 2034.5132,568.8785 C 2033.1249,568.1525 2031.2678,568.2465 2029.6653,568.4625 C 2027.5997,568.7415 2029.6336,565.8835 2029.8634,565.1865 C 2030.2032,564.1595 2029.4305,561.2365 2031.3772,561.3135 C 2031.0815,559.7975 2030.1113,559.6575 2028.606,559.6575 C 2026.6214,559.6575 2027.0344,558.0825 2026.4006,556.8475 C 2026.3427,556.7345 2025.7635,555.9885 2025.9271,555.7995 C 2026.7618,554.8305 2025.4606,554.1665 2025.1454,553.4475 C 2024.6168,552.2395 2026.4884,551.7195 2026.3762,550.5145 C 2024.3748,551.8045 2022.412,550.1645 2020.3872,551.1845 C 2019.9197,551.4195 2017.1025,553.3665 2016.7123,553.0285 C 2015.9158,552.3365 2016.9762,551.6135 2017.3827,550.9035 C 2017.7863,550.1995 2017.4671,549.0785 2017.1644,548.4975 C 2016.6949,547.5955 2016.3052,547.7155 2016.2766,546.4215 C 2016.2548,545.4595 2016.79,544.7615 2017.8538,544.6825 C 2017.2564,543.4115 2018.1346,542.4145 2018.2736,541.0825 C 2019.7651,542.6085 2020.5114,538.6595 2020.7502,538.1305 C 2023.273,538.3085 2021.6018,537.2515 2023.4517,536.0425 C 2023.7427,535.8525 2024.5836,536.3555 2024.7125,535.9175 C 2024.9707,535.0405 2023.9377,534.3975 2023.7602,533.6665 C 2025.1933,534.2435 2024.8369,531.5775 2024.9539,530.8475 C 2025.2085,529.2595 2025.0943,527.4135 2024.8766,525.9235 C 2024.7025,524.7375 2024.6725,523.4975 2024.6728,522.2685 C 2024.6735,520.8205 2023.8477,520.6015 2022.6172,519.9865 C 2022.7925,520.5615 2022.3763,521.0115 2021.7536,521.2115 C 2021.452,520.1735 2020.6819,519.1285 2020.5814,518.0345 C 2020.4924,517.0685 2020.7125,516.2395 2020.0416,515.5175 C 2018.9314,514.3225 2016.9022,513.8505 2015.9922,512.5705 C 2015.7431,513.5515 2015.0563,516.3905 2013.7441,514.8225 C 2013.0292,513.9705 2012.3253,514.7435 2011.5117,514.3485 C 2010.7668,513.9885 2009.9091,513.2815 2008.97,513.2905 C 2008.1013,513.2995 2007.5314,514.3705 2006.6841,514.0125 C 2006.0766,513.7565 2006.8198,512.8345 2007.1059,512.4785 C 2007.5571,511.9175 2008.3111,511.3385 2008.6109,510.7215 C 2009.0921,509.7305 2007.3029,509.2775 2007.9501,508.0335 C 2007.2445,508.2165 2006.3551,509.0965 2005.6356,508.9295 C 2004.0313,508.5575 2006.2322,507.0555 2006.8663,506.8105 C 2006.3182,506.2205 2005.5938,505.4265 2004.9825,504.9125 C 2004.3772,504.4025 2001.7902,505.9825 2001.094,506.3915 C 2000.3777,506.8125 2000.482,507.7455 1999.8011,508.1385 C 1999.1926,508.4905 1998.3139,508.0425 1997.8882,507.8535 C 1997.7252,507.7805 1995.7826,506.4725 1996.4683,507.5295 C 1995.8675,507.1435 1994.9803,506.3515 1994.2883,506.1615 C 1993.4913,505.9425 1992.685,506.6245 1991.7613,507.0935 C 1990.4319,507.7675 1989.525,509.0315 1988.4474,510.0065 C 1987.0826,511.2435 1986.0212,511.2145 1984.4218,511.4745 C 1982.6582,511.7615 1983.0884,512.8725 1982.1339,513.8875 C 1981.2573,514.8195 1979.4983,515.2385 1978.9686,516.3445 C 1978.2753,517.7885 1978.0378,518.8455 1976.0053,518.9155 C 1974.6975,518.9595 1973.5793,519.7355 1972.3379,519.5705 C 1971.4246,519.4495 1970.7463,519.3575 1970.9182,518.3605 C 1971.0725,517.4735 1968.8338,516.7615 1968.0562,516.6655 C 1966.8735,516.5195 1966.5953,517.8755 1965.3529,517.2495 C 1964.2516,516.6955 1963.0999,516.7065 1961.7835,516.6875 C 1960.4824,516.6695 1961.6228,515.2675 1960.5288,514.9305 C 1959.1338,514.5025 1957.8121,514.5915 1956.3249,515.4355 C 1954.7635,516.3225 1953.4194,517.7295 1952.4206,519.1585 C 1951.6629,520.2445 1950.2258,521.9635 1949.8935,523.1545 C 1947.9095,522.1125 1949.8908,519.8315 1949.5559,518.1145 C 1949.0304,515.4365 1946.0241,517.5515 1944.053,517.6825 C 1944.0483,517.9475 1944.0478,518.2115 1944.0507,518.4745 C 1942.4587,518.0035 1939.9643,518.6085 1938.1881,518.5735 C 1936.5851,518.5415 1935.6707,517.9445 1934.3208,517.2155 C 1933.8494,516.9615 1933.0696,516.4175 1932.3978,516.6775 C 1931.8001,516.9085 1931.9916,517.7695 1931.3794,517.8735 C 1930.4483,518.0315 1928.9153,516.7905 1929.0465,515.8835 C 1928.7993,516.0535 1928.1853,519.0115 1927.6598,517.7835 C 1927.1235,516.5335 1925.5942,515.7965 1925.3789,514.3715 C 1924.8933,515.5345 1920.9381,515.0485 1920.8377,514.0215 C 1920.7844,513.4725 1921.5527,512.5055 1921.1805,512.0515 C 1920.7946,511.5815 1919.1603,512.6375 1918.425,512.1605 C 1917.255,511.4015 1914.4805,510.4475 1914.2377,508.9625 C 1913.9391,507.1345 1912.3762,505.1335 1909.9977,507.0565 C 1909.1493,507.7495 1907.4187,504.7755 1907.1432,504.3475 C 1906.383,503.1695 1904.4134,502.9225 1903.0904,502.0335 C 1901.0284,500.6485 1899.254,499.1095 1897.6025,497.3595 C 1896.9711,496.6905 1895.8793,496.7895 1895.0057,496.5005 C 1894.0628,496.1885 1893.7846,497.4185 1892.7858,497.0195 C 1892.6292,499.6395 1891.0197,499.9705 1889.7901,498.2955 C 1888.6883,496.7965 1887.0458,496.0965 1885.1766,495.5785 C 1884.7817,495.4685 1883.8249,495.3505 1883.6002,495.0045 C 1883.254,494.4695 1884.29,493.6075 1883.3737,493.2275 C 1882.6799,492.9395 1882.3206,492.8555 1881.7853,492.2775 C 1880.867,491.2865 1879.9718,491.9995 1878.8387,491.6595 C 1877.128,491.1475 1876.7883,489.2725 1875.8114,488.1295 C 1874.8253,486.9755 1872.8133,490.2485 1872.5249,487.9445 C 1872.4218,487.1335 1872.9219,486.3115 1872.5718,485.5535 C 1872.218,484.7865 1872.1474,484.1585 1872.1777,483.2735 C 1872.2113,482.3215 1871.334,481.7415 1870.7673,481.1545 C 1869.9287,480.2865 1870.4444,478.9535 1869.7737,478.0115 C 1872.1449,476.5495 1872.3247,477.6155 1873.2275,478.9665 C 1873.6725,479.6325 1874.5267,479.7495 1875.1558,479.0025 C 1875.9403,478.0695 1876.9411,478.1437 1877.7403,477.3327 C 1878.7254,476.3327 1877.8943,475.3555 1877.4242,474.6635 C 1877.0508,474.1135 1877.6214,472.6045 1877.0545,472.4325 C 1874.7377,471.7245 1874.8555,471.8889 1873.4535,470.1942 C 1871.8685,468.2817 1872.3451,464.8445 1872.5148,464.3735 C 1872.5994,464.1391 1875.3961,463.4013 1873.3049,462.7219 C 1871.511,462.1345 1870.3739,460.7173 1868.8274,459.6816 C 1866.6931,458.2544 1868.3446,454.9533 1864.7667,452.6555 C 1862.2766,452.7575 1854.963,452.2765 1855.648,448.9245 C 1854.8713,449.1015 1853.5388,450.2115 1852.9203,449.5485 C 1852.4401,449.0335 1851.0348,448.1265 1850.8802,447.4585 C 1850.7384,446.8455 1851.1153,445.6235 1851.0919,444.9105 C 1851.0603,443.9285 1850.7393,443.1395 1850.117,442.4445 C 1849.2547,441.4665 1847.1773,442.0135 1846.7595,441.0115 C 1846.3066,439.9275 1844.2006,438.6155 1842.8079,440.2125 C 1842.5208,438.4745 1840.0319,439.7545 1839.6487,438.4885 C 1839.1411,436.8165 1842.308,437.5225 1842.8168,437.4405 C 1844.925,437.1015 1844.6095,435.3575 1843.6465,434.7015 C 1842.8326,434.1445 1843.3701,433.8525 1843.5791,432.9775 C 1843.6729,432.5865 1843.2734,431.4125 1843.1942,430.9935 C 1843.0819,430.4015 1842.3265,430.3375 1842.2571,429.6775 C 1842.1758,428.9035 1842.6782,428.0725 1842.7216,427.2825 C 1842.8001,425.8255 1840.2758,425.4265 1839.0515,425.1635 C 1837.4269,424.8125 1835.6344,426.9435 1834.7374,425.4125 C 1834.446,424.9175 1833.2633,422.6545 1834.9978,422.6445 C 1834.6407,421.9205 1834.0402,421.3655 1833.5388,420.7435 C 1833.0417,420.1315 1833.6082,419.0585 1833.5256,418.3175
            L1833.5256,418.3175z"
         id="path2708"
         style="fill:url(#linearGradient4955);fill-opacity:1" />
    </g>
  </g>
</svg>
