<?xml version="1.0" encoding="UTF-8"?>
<svg viewBox="0 0 793.7 1122.5" xmlns="http://www.w3.org/2000/svg">
 <path d="m90.904 919.27c6.1223-6.3893 15.306-15.334 27.55-14.057 12.245 1.2779 39.795 3.8336 49.999 1.2779 10.204-2.5558 18.367 1.2778 21.428-8.9452 3.0611-10.223 4.0815-43.448 12.244-56.227 8.1631-12.779 30.611-26.835 33.672-39.614 3.0611-12.779 4.0816-17.89 0-30.669-4.0815-12.779-13.265-24.28-26.53-31.947-13.265-7.6673-25.51-12.779-25.51-12.779s-26.53 30.669-27.55 38.336c-1.0204 7.6673 2.0407 15.335-4.0815 19.168-6.1224 3.8337-16.326-7.6671-18.367-28.113-2.0407-20.446 5.102-44.726 4.0816-58.783s-8.1631-26.835-2.0408-40.892 20.408-35.781 31.632-46.004 30.611-11.501 33.672-24.28c3.0612-12.779-19.387-61.338-19.387-72.839s3.0612-33.225-4.0815-51.115c-7.1426-17.89-15.306-56.227-45.917-80.506-30.611-24.28-52.039-34.503-57.141-52.393-5.1018-17.89-1.0204-17.89 5.1019-23.002 6.1223-5.1116-16.326-34.503-23.469-62.616-7.1427-28.113-19.387-84.34-14.285-89.452 5.1019-5.1115 20.408 0 23.469 10.223 3.0611 10.223 15.306 72.839 15.306 72.839s-3.0612-47.282 2.0407-61.338c5.1018-14.057 11.224-28.113 17.346-24.28 6.1223 3.8336 3.0611 86.896 3.0611 86.896s6.1224-19.168 10.204-30.669c4.0815-11.501 7.1427-21.724 12.245-15.334 5.1018 6.3894 1.0204 67.728 1.0204 67.728s8.163-15.334 14.285-19.168c6.1223-3.8336 9.1834-6.3894 13.265 2.5558 4.0815 8.9451 3.0611 20.446 3.0611 20.446s3.0611-12.779 10.204-12.779c7.1426 0 16.326 3.8336 13.265 14.057-3.0611 10.223 27.55 1.2779 25.51 19.168-2.0407 17.89 0 34.503 8.163 34.503s13.265 14.057 29.591 8.9452c10.204 7.6673-5.1019 54.949 2.0407 48.559 7.1427-6.3894 23.469-11.501 29.591 2.5558 6.1223 14.057-8.163 30.669 0 43.448s0 24.28 12.244 34.503c12.245 10.223 13.265 2.5558 16.326 25.558 3.0611 23.002 3.0611 33.225 8.163 42.17s11.224 15.334 10.204 34.503c-1.0204 19.168-10.204 37.058 2.0408 34.503 12.244-2.5558 17.346-17.89 26.53-24.28 9.1835-6.3893 11.224-7.6673 23.469-19.168 12.244-11.501 14.285-26.836 21.428-30.669 7.1427-3.8336 13.265-2.5557 23.469-7.6672s20.408-16.612 25.51-21.724c5.1018-5.1115 5.1018-7.6673 14.285-17.89 9.1835-10.223 18.367-16.612 24.489-33.225 6.1223-16.612 5.1019-17.89 12.244-42.17 7.1428-24.28 5.1019-31.947 9.1835-42.17 4.0814-10.223 4.0814-19.168 11.224-28.113 7.1428-8.9451 13.265-19.168 14.285-10.223 1.0204 8.9452 1.0204 21.724 1.0204 29.391 0 7.6673 9.1835-11.501 17.346-30.669 8.1631-19.168 4.0815-21.724 7.1426-38.336 3.0612-16.612 0-28.113 1.0204-47.282 1.0203-19.168 3.0611-20.446 4.0815-48.56 1.0204-28.113 2.834-32.834 2.834-53.28s-0.59332-28.716-0.79327-43.838c3.5425-11.607 7.5121-15.156 10.204-14.057 3.3154 1.0996 7.7664 1.1717 10.431 16.612 2.0407 16.612 3.8814 29.001 5.8952 60.06-2.041 30.669-3.0613 57.505 1.0203 65.172 4.0814 7.6673 7.1426 6.3894 10.204-2.5558 3.061-8.9452 3.061-12.779 7.1425-28.113 4.0817-15.334 3.8243-25.383 5.9225-46.785-1.0203-31.947 0.19995-46.5 1.2203-70.78s-0.11188-24.989 2.041-39.614c1.8407-13.844 4.4204-17.143 13.265-15.335 5.1019 7.6673 6.1222 26.836 8.1631 43.448 2.0407 16.612 2.0407 15.334 3.0612 46.004 1.0203 30.669 0.14215 42.913-1.8986 53.136-0.48138 11.395-2.295 22.717-1.1626 27.37 6.1222-5.1116 6.1222-14.057 12.245-31.947 6.1222-17.89 11.224-33.225 13.265-53.671 2.0407-20.446 7.485-27.935 10.97-50.44 8.163-21.724 9.9494-26.976 15.56-27.51 5.9224 5.3238 8.7292 10.117 8.1631 26.835-3.0611 17.89-3.0611 26.836-8.1631 44.726-5.1018 17.89-4.0815 25.558-11.224 44.726-4.3359 16.825-4.8718 22.539-7.1428 28.113 10.204 1.2779 10.062-3.7996 16.326-12.779 10.319-24.602 6.4069-19.418 10.204-26.836 5.668-14.838 10.516-20.302 15.306-17.89 5.1018 10.223 7.1426 12.779 3.0611 24.28-4.0814 11.501-1.0203 3.8336-7.1426 20.446-6.1222 16.612-12.244 23.002-4.0814 21.724 8.163-1.2778 9.1834 0 14.285-10.223 5.102-10.223 0-11.501 11.224-17.89 11.224-6.3894 18.367-17.89 21.428-8.9452 3.061 8.9452 4.0814 7.6673-3.0613 20.446-7.1425 12.779-14.285 16.612-11.224 23.002 3.061 6.3893 11.224 7.6673 17.346 7.6673 6.1222 0 7.1426 1.2778 4.0814 14.057-3.061 12.779-4.0814 12.779-5.1018 19.168-1.0204 6.3894 4.0814 11.501 4.0814 11.501s9.1835-7.6673 2.0408 11.501c-7.1426 19.168-11.224 14.057-15.306 23.002-4.0816 8.9452-8.163 17.89-2.0407 17.89 6.1221 0 12.244-1.2779 11.224 5.1115-1.0204 6.3895-10.204 12.779-5.102 16.612 5.102 3.8336 9.1835-1.2779 13.265 3.8336 4.0816 5.1116 0 14.057 0 20.446 0 6.3894-1.0203 11.501 1.0204 17.89 2.0409 6.3893 6.1223 12.779 3.0612 19.168-3.0612 6.3895 1.0204 7.6673-7.1428 14.057-8.163 6.3894-13.265 5.1116-13.265 11.501 0 6.3893-1.0203 5.1114 4.0815 10.223 5.102 5.1115 11.224 1.2778 7.1427 12.779-4.0814 11.501-3.061 10.223-5.1018 20.446-2.041 10.223 1.0203 5.1115-8.1632 29.391-9.1834 24.28-18.367 42.17-27.55 48.56-9.1834 6.3893-7.1426 20.446-1.0203 23.002 6.1222 2.5557 7.1425 14.057 1.0203 30.669s-13.265 38.336-15.306 49.837c-2.0407 11.501-4.0814 12.779-14.285 26.836s-18.367 26.835-27.55 30.669c-9.1834 3.8336-10.204 16.612-16.326 23.002-6.1222 6.3893-8.1631 10.223-21.428 10.223s-13.265-3.8337-26.53 1.2778c-13.265 5.1116-19.387 10.223-20.408 17.89-1.0204 7.6672-5.1019 11.501-13.265 8.945-8.163-2.5557-2.0408 5.1116-12.245 10.223s-7.1426 11.501-19.387 10.223c-12.244-1.2778-18.367-12.779-21.428 0-3.0611 12.779-4.0814 23.002-17.346 11.501s-20.408-42.17-27.55-10.223c-7.1427 31.947-7.1427 39.614 1.0204 48.56 8.163 8.9451 10.204 16.612 28.571 25.558 18.367 8.9452 18.367 19.168 31.632 25.558 13.265 6.3894 14.285 8.9452 34.693 21.724s25.51 16.612 37.754 25.558c12.244 8.9452 15.306 17.89 18.367 26.835 3.0612 8.9452 16.326 19.168 11.224 31.947-5.1019 12.779-15.306 5.1115-15.306 11.501 0 6.3893 2.0407 11.501-2.0409 24.28-4.0815 12.779-3.0612 17.89-17.346 23.002-14.285 5.1115-22.448 7.6673-29.591 3.8337-7.1427-3.8337-9.1834 11.501-16.326 7.6672-7.1426-3.8336-10.204-15.334-15.306-8.9451-5.1019 6.3893 4.0815 10.223-8.163 14.057-12.245 3.8337-13.265-6.3893-14.285 2.5558-1.0204 8.9453 3.0612 17.89-10.204 8.9453-13.265-8.9453-9.1834-26.836-19.387-14.057s-5.102 28.113-23.469 15.335c-18.367-12.779-12.244-14.057-26.53-12.779-14.285 1.278-14.285 2.5558-19.387-11.501-5.1019-14.057 5.1018-10.223-17.346-11.501-22.448-1.2778-11.224 16.612-25.509-7.6671-14.285-24.28-17.346-48.56-23.469-21.724-6.1223 26.836 0 33.225-9.1834 40.892-9.1834 7.6674-56.121 5.1116-56.121 5.1116s-1.0204 29.391-5.1019 34.503c-4.0815 5.1116-14.285-5.1114-23.469 5.1116-9.1834 10.223-3.0611 16.612-11.224 25.558-8.163 8.9451-24.489 10.223-24.489 10.223s11.224-11.501 14.285-21.724c3.0612-10.223 7.1426-28.113 7.1426-28.113s-16.326 7.6674-23.469 8.9452c-7.1427 1.2778-18.367-1.2778-18.367-1.2778l3.0612 29.391s-19.387 0-19.387-10.223 6.1223-38.336 11.224-42.17c5.1018-3.8337 12.244-2.5558 12.244-2.5558s-2.0407-12.779 3.0612-15.334c5.1019-2.5558 8.1631 0 16.326 0 8.163 0 44.897-14.057 44.897-14.057s-1.0204-33.225 3.0611-47.282 23.469-53.671 14.285-60.06c-9.1835-6.3894-16.326-1.2778-21.428 5.1116-5.1019 6.3893-14.285 25.558-33.672 30.669-19.387 5.1115-34.693 7.6673-34.693 7.6673s-4.0815 2.5557-4.0815 12.779 7.1426 20.446-3.0612 33.225-18.367 24.28-29.591 17.89c-11.224-6.3895-13.265-14.057-13.265-14.057s8.163 6.3895 21.428 2.5558c13.265-3.8336 8.163-35.781 7.1426-42.17-1.0204-6.3894-11.224-12.779-17.346-6.3894-6.1223 6.3894-14.285 23.002-9.1835 29.391 5.1019 6.3893-14.285-14.057-13.265-23.002 1.0204-8.9451 4.0816-15.335 4.0816-15.335s-13.265 0-21.428-1.2778c-8.163-1.278-14.285-6.3893-14.285 1.2778 0 7.6673 4.0816 42.17-5.1018 20.446-9.1835-21.724-13.265-26.835-4.0815-38.336z" fill-rule="evenodd" stroke-width="0"/>
</svg>
