<?xml version="1.0" encoding="UTF-8" standalone="no"?>
<svg xmlns:svg="http://www.w3.org/2000/svg"
   xmlns="http://www.w3.org/2000/svg" version="1.0" x="0.00000000" y="0.00000000" width="500.00000" height="500.00000" id="svg2">

<path d="
M200,250
l5,-15
q15,-45 80,-45
l150 0
l-5,20
q-2,10 -12,10
l-30,0
q-5,0 -6,20
l-5,100
q-2,40 30,40
q15,0 25,-15
l10,8
q-15,30 -40,30
q-50,2 -50,-40
l5,-130
q1,-13 -5,-13
l-60,0
q-5,0 -6,20
l-4,83
q-3,80 -35,80
q-20,0 -20,-15
q0,-10 10,-20
q18,-20 20,-40
l10,-100
q0,-8 -5,-8
l-10,0
q-25,0 -40,30
L200 250
z
"
style="stroke: #000000;
stroke-width: 1;
fill: #000000;
"
/>

</svg>